<svg width="41" height="41" viewBox="0 0 41 41" fill="none" xmlns="http://www.w3.org/2000/svg">
<path d="M28.7 11.1L20.4 19.4L16.8 15.8L14.8 17.8L20.4 23.4L30.7 13.1L28.7 11.1ZM36.4 7.8L34.4 9.8C36.6 12.8 38 16.4 38 20.4C38 30.1 30.1 38 20.4 38C10.7 38 2.8 30.1 2.8 20.4C2.8 10.7 10.7 2.8 20.4 2.8C24.8 2.8 28.9 4.5 32 7.2L34 5.2C30.4 2 25.6 0 20.4 0C9.2 0 0 9.2 0 20.4C0 31.6 9.2 40.8 20.4 40.8C31.6 40.8 40.8 31.6 40.8 20.4C40.8 15.6 39.1 11.3 36.4 7.8ZM19 35.9H21.9V31.9H19V35.9ZM21.9 4.9H18.9V8.9H21.9V4.9ZM4.9 21.9H8.8V18.9H4.9V21.9ZM31.9 21.8H35.8V18.9H31.9V21.8Z" fill="white"/>
</svg>
