<svg width="213" height="39" viewBox="0 0 213 39" fill="none" xmlns="http://www.w3.org/2000/svg">
<path d="M55.5588 24.0365C56.4922 24.9866 57.5729 25.6991 58.801 26.1742C60.2747 26.6967 61.8466 26.9817 63.4677 26.9342C64.4011 26.9342 65.2362 26.8392 65.9239 26.7917C66.6116 26.6967 67.2993 26.5542 67.9871 26.3167C68.6257 26.1742 69.1169 25.8892 69.6573 25.6991C70.0503 25.4616 70.4924 25.2716 70.8854 25.0816L70.2468 23.799C69.9029 23.9415 69.559 24.1315 69.1661 24.2741C68.7731 24.4166 68.4292 24.6066 68.0362 24.7016C67.5941 24.8441 67.1029 24.9391 66.6116 24.9866C65.973 25.0816 65.3835 25.1291 64.7449 25.0816C63.6151 25.1291 62.4852 24.8441 61.5028 24.3216C60.6677 23.799 59.9799 23.134 59.4396 22.3264C58.9483 21.3764 58.6045 20.3788 58.4571 19.3812C58.2606 18.1462 58.1624 16.9111 58.1624 15.6285C58.1624 14.5834 58.2606 13.4909 58.3589 12.3983C58.4571 11.4007 58.7027 10.4507 59.1448 9.54811C59.5378 8.69306 60.1764 7.98051 60.9133 7.41048C61.8466 6.84044 62.9765 6.50792 64.1063 6.55542C65.2362 6.55542 66.366 6.88794 67.2994 7.50548C68.2327 8.12302 68.7239 9.07308 68.9696 10.4032H70.3941V6.1754C69.952 6.03289 69.4608 5.84287 68.9696 5.70037C68.4292 5.51035 67.8888 5.41535 67.2994 5.36784C66.6607 5.27284 66.1695 5.27284 65.5309 5.22533C65.0397 5.22533 64.4502 5.13033 64.0572 5.13033C62.387 5.08283 60.7168 5.36784 59.0957 5.89038C56.4922 6.84044 54.4781 8.97808 53.7904 11.5907C53.3482 13.1108 53.1517 14.6784 53.1517 16.246C53.1026 17.7661 53.3482 19.2387 53.7904 20.7113C54.0851 21.9464 54.6746 23.0865 55.5588 24.0365Z" fill="#2F9A41"/>
<path d="M141.722 26.2692C142.753 26.1742 143.736 25.8892 144.62 25.4141C145.504 24.9391 146.241 24.179 146.683 23.2765C147.273 22.0889 147.518 20.7588 147.469 19.4287C147.518 18.4312 147.322 17.4336 146.978 16.4836C146.634 15.676 146.045 14.9635 145.308 14.4409C144.374 13.8709 143.343 13.4909 142.311 13.3484C140.837 13.0633 139.315 12.9683 137.841 13.0158H135.974V7.88551C135.925 7.50548 136.072 7.12546 136.318 6.84044C136.76 6.65043 137.251 6.60292 137.743 6.69793H140.395C141.083 6.65043 141.771 6.69793 142.458 6.79294C142.901 6.84044 143.343 6.98295 143.687 7.22046C144.03 7.50548 144.325 7.838 144.473 8.26553C144.718 8.83557 144.964 9.45311 145.111 10.0706H146.192V5.36784H129.981V6.03289C130.079 6.03289 130.178 6.12789 130.423 6.12789C130.718 6.2229 130.865 6.2704 130.914 6.41291C131.013 6.55542 131.111 6.69793 131.209 6.88794C131.209 7.17296 131.307 7.36297 131.307 7.743V23.989C131.357 24.2741 131.307 24.6066 131.209 24.8441C131.209 25.1291 131.111 25.2716 130.914 25.3191C130.816 25.4616 130.62 25.5566 130.423 25.6041C130.276 25.6516 130.128 25.6991 129.981 25.6991V26.3642H138.136C139.315 26.4117 140.543 26.3642 141.722 26.2692ZM136.367 24.7016C136.171 24.5591 136.072 24.3216 136.072 24.084C136.072 23.799 135.974 23.4665 135.974 23.039V14.2034H137.841C139.511 14.2034 140.739 14.6309 141.476 15.486C142.213 16.341 142.557 17.6711 142.557 19.5713C142.606 20.5688 142.458 21.5664 142.213 22.5164C142.016 23.134 141.673 23.7515 141.23 24.2266C140.837 24.5116 140.395 24.7966 139.904 24.9866C139.364 25.0816 138.823 25.1291 138.332 25.1291C137.841 25.0341 137.35 25.0341 137.104 24.9866C136.809 24.9866 136.564 24.8916 136.367 24.7016Z" fill="#2F9A41"/>
<path d="M118.535 25.7467C118.437 25.7467 118.339 25.6516 118.093 25.6516C117.798 25.5566 117.651 25.5091 117.602 25.3666C117.553 25.2241 117.405 25.0816 117.307 24.8916C117.307 24.6066 117.209 24.4166 117.209 24.0365V18.1937H119.42C120.5 18.1937 121.581 18.0987 122.662 17.9086C123.644 17.7661 124.528 17.4336 125.363 16.9586C126.199 16.4836 126.837 15.771 127.23 14.916C127.721 13.8234 127.967 12.5883 127.918 11.4007C127.918 10.3082 127.721 9.16809 127.279 8.17052C126.837 7.41048 126.248 6.79294 125.511 6.31791C124.725 5.89038 123.841 5.60536 122.956 5.55786C121.974 5.46285 120.942 5.36784 119.96 5.41535H111.314V6.08039C111.412 6.08039 111.511 6.1754 111.756 6.1754C112.051 6.2704 112.198 6.31791 112.247 6.46041C112.346 6.60292 112.444 6.74543 112.542 6.93544C112.542 7.22046 112.64 7.41047 112.64 7.7905V23.989C112.69 24.2741 112.64 24.6066 112.542 24.8441C112.542 25.1291 112.444 25.2716 112.247 25.3191C112.149 25.4616 111.953 25.5566 111.756 25.6041C111.609 25.6991 111.461 25.6991 111.314 25.6991V26.3167H118.486L118.535 25.7467ZM117.356 7.743C117.356 7.60049 117.405 7.41048 117.455 7.26797C117.455 7.12546 117.504 7.03045 117.651 6.93544C117.798 6.84044 117.946 6.74543 118.142 6.79294C118.437 6.79294 118.634 6.69793 119.125 6.69793C119.665 6.74543 120.205 6.79294 120.697 6.84044C121.188 7.03045 121.63 7.26797 122.023 7.60049C122.416 8.02801 122.711 8.50305 122.956 9.02558C123.153 9.73812 123.251 10.4982 123.251 11.2107C123.251 13.0158 122.956 14.3459 122.465 15.296C121.974 16.246 120.991 16.7211 119.616 16.7211H117.405V7.743H117.356Z" fill="#2F9A41"/>
<path d="M107.04 21.5664C106.893 22.2314 106.746 22.8965 106.549 23.5615C106.451 23.989 106.205 24.3691 105.861 24.6541C105.518 24.9391 105.075 25.1291 104.633 25.0816C103.896 25.1766 103.16 25.2241 102.423 25.1766C101.735 25.2241 101.047 25.1766 100.36 25.0816C99.9666 25.0341 99.5736 24.9391 99.2297 24.7491C98.9841 24.6066 98.7876 24.3691 98.7876 24.084C98.6893 23.704 98.6402 23.2765 98.6893 22.8965V16.1985H102.472C102.816 16.1985 103.16 16.2935 103.553 16.2935C103.896 16.341 104.289 16.3885 104.633 16.4361C104.928 16.5311 105.272 16.6261 105.567 16.7686V14.0134C105.272 14.2034 104.977 14.2984 104.633 14.3459C103.896 14.4884 103.209 14.5834 102.472 14.6309H98.6402V7.69549C98.6402 7.36297 98.6893 7.03045 98.8367 6.74543C99.0332 6.60292 99.2788 6.60292 99.7701 6.60292H102.177C102.865 6.55542 103.553 6.60292 104.24 6.69793C104.682 6.74543 105.125 6.88794 105.468 7.12546C105.812 7.41048 106.107 7.743 106.254 8.17052C106.5 8.74056 106.746 9.3581 106.893 9.97564H108.023V5.36784H92.8436V6.03289C92.9419 6.03289 93.0401 6.12789 93.2857 6.12789C93.5805 6.2229 93.7279 6.2704 93.777 6.41291C93.8752 6.55542 93.9735 6.69793 94.0717 6.88794C94.0717 7.17296 94.17 7.36297 94.17 7.743V23.9415C94.2191 24.2266 94.17 24.5591 94.0717 24.7966C94.0717 25.0816 93.9735 25.2241 93.777 25.2716C93.6787 25.4141 93.4822 25.5091 93.2857 25.5566C93.1384 25.6041 92.991 25.6516 92.8436 25.6516V26.2692H108.514V21.5664H107.04Z" fill="#2F9A41"/>
<path d="M84.4926 26.2692C85.5242 26.1742 86.5067 25.8892 87.3909 25.4141C88.2751 24.9391 89.012 24.179 89.5032 23.2765C90.0927 22.0889 90.3383 20.7588 90.2892 19.4287C90.3383 18.4312 90.1418 17.4336 89.798 16.4836C89.4541 15.676 88.8646 14.9635 88.1278 14.4409C87.1944 13.8709 86.1628 13.4909 85.1312 13.3484C83.6575 13.0633 82.1347 12.9683 80.661 13.0158H78.7943V7.88551C78.7452 7.50548 78.8925 7.12546 79.1381 6.84044C79.5803 6.65043 80.0715 6.60292 80.5627 6.69793H83.2154C83.9031 6.65043 84.5909 6.69793 85.2786 6.79294C85.7207 6.84044 86.1628 6.98295 86.5067 7.22046C86.8506 7.50548 87.1453 7.838 87.2927 8.26553C87.5383 8.83557 87.7839 9.45311 87.9313 10.0706H89.0611V5.36784H72.8012V6.03289C72.8994 6.03289 72.9977 6.12789 73.2433 6.12789C73.5381 6.2229 73.6854 6.2704 73.7345 6.41291C73.8328 6.55542 73.931 6.69793 74.0293 6.88794C74.0293 7.17296 74.1275 7.36297 74.1275 7.743V23.9415C74.1275 24.2266 74.1275 24.5591 74.0293 24.7966C74.0293 25.0816 73.931 25.2241 73.7345 25.2716C73.6363 25.4141 73.4398 25.5091 73.2433 25.5566C73.0959 25.6516 72.9486 25.6516 72.8012 25.6516V26.4117H80.9557C82.3312 26.4117 83.3628 26.4117 84.4926 26.2692ZM79.1873 24.7016C78.9908 24.5591 78.8925 24.3216 78.8925 24.084C78.8925 23.799 78.7943 23.4665 78.7943 23.039V14.2034H80.661C82.3312 14.2034 83.5593 14.6309 84.2961 15.486C85.033 16.341 85.3768 17.6711 85.3768 19.5713C85.426 20.5688 85.2786 21.5664 85.033 22.5164C84.8365 23.134 84.4926 23.7515 84.0505 24.2266C83.6575 24.5116 83.2154 24.7966 82.7242 24.9866C82.1838 25.0816 81.6434 25.1291 81.1522 25.1291C80.661 25.0341 80.2189 25.0341 79.9241 24.9866C79.6294 24.9866 79.3838 24.8916 79.1873 24.7016Z" fill="#2F9A41"/>
<path d="M212.902 32.3971H53.0535V34.4397H212.902V32.3971Z" fill="#2F9A41"/>
<path d="M200.08 18.5262C200.523 19.1437 200.866 19.6188 201.309 20.0938C201.652 20.5688 202.095 21.1389 202.438 21.6139C202.782 22.1364 203.175 22.659 203.568 23.134C204.01 23.6565 204.354 24.2266 204.698 24.8441C205.042 25.3191 205.337 25.9367 205.631 26.4117L213 26.5067C212.214 25.7467 211.526 24.9866 210.74 24.1791C210.053 23.419 209.414 22.754 208.972 22.3264C208.284 21.5664 207.646 20.9013 207.105 20.2838C206.565 19.6663 205.975 19.0012 205.435 18.4312C204.895 17.8136 204.403 17.1961 203.961 16.5786C203.568 15.961 202.979 15.201 202.537 14.5359L202.881 14.1084C203.372 13.4434 204.01 12.7308 204.747 11.9233C205.435 11.0682 206.172 10.2132 206.958 9.45311C207.695 8.64555 208.431 7.88551 209.217 7.17296C209.856 6.60292 210.544 6.08039 211.281 5.60536H206.172C205.926 6.12789 205.681 6.65043 205.386 7.12546C205.042 7.7905 204.6 8.45554 204.158 9.07308C203.716 9.73812 203.175 10.4982 202.733 11.2582C202.291 12.0183 201.751 12.6833 201.259 13.3959C200.768 14.1084 200.277 14.7734 199.835 15.2485C199.393 15.866 199.049 16.2935 198.754 16.6736C199.196 17.2911 199.638 17.9086 200.08 18.5262Z" fill="#2F9A41"/>
<path d="M199.491 25.7467C199.393 25.7467 199.295 25.6516 199.049 25.6516C198.754 25.5566 198.607 25.5091 198.558 25.3666C198.459 25.2241 198.361 25.0816 198.263 24.8916C198.263 24.6066 198.165 24.4166 198.165 24.0365V7.88551C198.116 7.60049 198.165 7.26797 198.263 7.03045C198.263 6.74543 198.361 6.60292 198.558 6.55542C198.705 6.46041 198.852 6.36541 199.049 6.2704C199.196 6.1754 199.344 6.1754 199.491 6.1754V5.46285H192.319V6.12789C192.417 6.12789 192.515 6.2229 192.761 6.2229C193.056 6.31791 193.203 6.36541 193.252 6.50792C193.351 6.65043 193.449 6.79294 193.547 6.98295C193.547 7.26797 193.645 7.45798 193.645 7.838V24.0365C193.694 24.3216 193.645 24.6541 193.547 24.8916C193.547 25.1766 193.449 25.3191 193.252 25.3666C193.154 25.5091 192.958 25.6041 192.761 25.6516C192.614 25.7467 192.466 25.7467 192.319 25.7467V26.3642H199.491V25.7467Z" fill="#2F9A41"/>
<path d="M152.087 23.894C152.381 22.7065 152.873 20.9963 153.56 18.8587H160.536L161.518 21.6139C161.911 22.6114 162.255 23.6565 162.501 24.7016C162.747 25.3191 162.894 25.9367 162.943 26.5542H168.494C168.199 26.1267 168.003 25.5091 167.561 24.8441C167.069 23.894 166.676 22.8965 166.333 21.8989L161.273 8.07552C161.076 7.60049 160.929 7.07795 160.831 6.55542C160.732 6.12789 160.732 5.79537 160.634 5.51035H154.396V6.1754C154.494 6.1754 154.592 6.2704 154.838 6.2704C155.132 6.36541 155.28 6.41291 155.329 6.55542C155.427 6.69793 155.525 6.84044 155.624 7.03045V7.45798C155.624 7.93301 155.525 8.40804 155.329 8.83557L151.841 17.1011C151.202 18.6212 150.613 19.9988 150.171 20.9963C149.729 21.9939 149.238 22.9915 149.041 23.6565C148.697 24.3216 148.402 24.9391 148.108 25.3666C147.862 25.6991 147.666 26.0792 147.469 26.4592H151.448C151.645 25.5566 151.841 24.7491 152.087 23.894ZM157.048 8.83557L159.897 17.3386H153.904L157.048 8.83557Z" fill="#2F9A41"/>
<path d="M176.796 25.7467H176.599C176.501 25.7467 176.403 25.6516 176.157 25.6516C175.863 25.5566 175.715 25.5091 175.666 25.3666C175.568 25.2241 175.47 25.0816 175.371 24.8916C175.371 24.6066 175.273 24.4166 175.273 24.0365V15.961H183.722V23.989C183.771 24.2741 183.722 24.6066 183.624 24.8441C183.624 25.1291 183.526 25.2716 183.329 25.3191C183.231 25.4616 183.035 25.5566 182.838 25.6041C182.691 25.6516 182.543 25.6991 182.396 25.6991V26.3642H189.568V25.6991C189.47 25.6991 189.372 25.6041 189.126 25.6041C188.831 25.5091 188.684 25.4616 188.635 25.3191C188.536 25.1766 188.438 25.0341 188.34 24.8441C188.34 24.5591 188.242 24.3691 188.242 23.989V7.69549C188.193 7.41048 188.242 7.07795 188.34 6.84044C188.34 6.55542 188.438 6.41291 188.635 6.36541C188.782 6.2704 188.929 6.1754 189.126 6.08039C189.273 6.03289 189.421 5.98538 189.568 5.98538V5.41535H182.543V6.08039C182.642 6.08039 182.74 6.1754 182.985 6.1754C183.28 6.2704 183.428 6.31791 183.477 6.46041C183.575 6.60292 183.673 6.74543 183.771 6.93544C183.771 7.22046 183.87 7.41047 183.87 7.7905V14.5834H175.519V7.743C175.47 7.45798 175.519 7.12546 175.617 6.88794C175.617 6.60292 175.715 6.46041 175.912 6.41291C176.059 6.31791 176.206 6.2229 176.403 6.12789C176.55 6.03289 176.698 6.03289 176.845 6.03289V5.41535H169.722V6.08039C169.82 6.08039 169.919 6.1754 170.164 6.1754C170.459 6.2704 170.606 6.31791 170.655 6.46041C170.754 6.60292 170.852 6.74543 170.95 6.93544C170.95 7.22046 171.048 7.41047 171.048 7.7905V24.0365C171.048 24.3216 171.048 24.6541 170.95 24.8916C170.95 25.1766 170.852 25.3191 170.655 25.3666C170.557 25.5091 170.361 25.6041 170.164 25.6516C170.017 25.6991 169.869 25.7467 169.722 25.7467V26.4117H176.845L176.796 25.7467Z" fill="#2F9A41"/>
<path d="M38.5129 7.60049C38.0708 6.98295 37.6287 6.41291 37.1866 5.79537L12.7721 19.3337L0.982472 12.7783C0.687731 13.4909 0.54036 14.2034 0.491236 14.9635L12.8704 21.8989L38.5129 7.60049Z" fill="#2F9A41"/>
<path d="M12.7721 24.4166L0.0982472 17.3861C0 17.8611 0 18.2887 0 18.7162C0 29.9269 9.38261 39 20.9758 39C32.569 39 41.9024 29.9269 41.9024 18.7162C41.9024 15.486 41.1656 12.3508 39.6428 9.50061L12.7721 24.4166Z" fill="#2F9A41"/>
<path d="M35.5164 4.03776C34.9269 3.51523 34.2883 2.99269 33.6497 2.51766L12.7721 14.2034L2.75092 8.69306C2.40706 9.3106 2.06319 9.97564 1.6702 10.6882L12.6739 16.8636L35.5164 4.03776Z" fill="#2F9A41"/>
<path d="M31.5865 1.18758C30.8005 0.712546 29.9654 0.332521 29.1303 0L12.7721 9.12059L5.45272 5.13033C4.96149 5.60536 4.47025 6.2229 3.97901 6.84044L12.723 11.6857L31.5865 1.18758Z" fill="#2F9A41"/>
</svg>
