<svg width="94" height="60" viewBox="0 0 94 60" fill="none" xmlns="http://www.w3.org/2000/svg">
<path fill-rule="evenodd" clip-rule="evenodd" d="M81.9423 14.836H94L92.7942 21.2952H87.9209L86.7654 27.4012H91.1363L90.031 33.5071H85.6601L80.9877 60H73.8033L81.9423 14.836ZM79.3298 14.836H71.9947L67.5735 38.6039C67.272 40.2187 67.0208 41.2279 66.8199 41.7325C66.5687 42.1362 66.2672 42.3381 65.7648 42.3381C65.3629 42.3381 65.1117 42.1363 65.0615 41.783C65.0112 41.3793 65.1117 40.471 65.3629 39.058L69.8846 14.836H62.4992L58.9321 33.9613C58.279 37.5946 57.8268 39.9664 57.7263 41.127C57.6761 42.2876 57.8268 43.3474 58.279 44.4071C58.6809 45.4668 59.535 46.2742 60.6905 46.8797C61.8963 47.5357 63.2528 47.889 64.961 47.889C66.5184 47.889 67.8749 47.6367 69.0807 47.0816C70.3367 46.577 71.3415 45.7191 72.2459 44.7098C73.0999 43.6501 73.7531 42.6409 74.0545 41.6316C74.4062 40.6224 74.7579 38.9571 75.2603 36.434L79.3298 14.836ZM49.3864 35.5761C49.6879 31.8923 50.14 27.4516 50.8434 22.0521C48.9343 28.2086 47.628 32.6493 46.9749 35.5761H49.3864ZM56.8723 14.836L54.6114 47.1825H47.829L48.5323 41.3288H45.9701L44.4126 47.1825H37.0775L47.3768 14.836H56.8723V14.836ZM41.5991 14.836H35.3693L32.7066 29.4197L31.2496 14.836H25.1203L19.0914 47.132H25.271L27.984 32.397L29.0893 47.132H35.52L41.5991 14.836ZM21.8044 15.0883L15.7253 29.7225L17.2325 47.1825H10.45L9.19401 35.6266L7.03367 47.1825H0L7.38535 0H14.4693L10.852 25.7864L15.3234 15.0378H21.8044V15.0883Z" fill="#00AEEF"/>
</svg>
