<svg width="26" height="27" viewBox="0 0 26 27" fill="none" xmlns="http://www.w3.org/2000/svg">
<path d="M11.562 7.85974C11.5514 6.74461 12.4482 5.82881 13.5412 5.82342C14.6555 5.82342 15.531 6.71229 15.531 7.85435C15.5416 8.96947 14.6661 9.88528 13.5784 9.90144C12.48 9.90682 11.578 8.99102 11.562 7.85974Z" fill="#3E60C1"/>
<path d="M16.3959 19.4312C16.3694 19.5982 16.2686 19.7759 16.1465 19.9106C15.4196 20.6702 14.5441 21.1173 13.4935 21.1335C13.0212 21.1443 12.5384 21.1604 12.082 21.0581C10.8829 20.8049 10.2037 19.7705 10.3947 18.5531C10.6229 17.0878 10.8829 15.6387 11.1322 14.1788C11.2065 13.737 11.2967 13.3007 11.3551 12.8589C11.3816 12.7027 11.3657 12.5249 11.3392 12.3741C11.2861 12.0724 11.1376 11.9431 10.851 11.8947C10.6918 11.8785 10.538 11.8839 10.3894 11.8462C10.2037 11.7923 9.99143 11.7223 9.84816 11.6145C9.58816 11.4206 9.64653 11.0327 9.93837 10.9034C10.0869 10.828 10.2673 10.7903 10.4371 10.7903C11.0898 10.7795 11.7531 10.7903 12.4004 10.7903H14.3637C14.8359 10.7903 15.0747 11.0327 15.1384 11.5122C15.202 11.9916 15.0376 12.4387 14.9527 12.8966C14.7139 14.2704 14.4539 15.6333 14.2151 17.0016C14.1302 17.4703 14.0506 17.9389 13.9763 18.413C13.9604 18.5531 13.9657 18.7147 13.9763 18.8547C14.0612 19.4635 14.4008 19.6844 14.9686 19.5389C15.1437 19.4904 15.2976 19.3881 15.4673 19.3073C15.6265 19.2318 15.7804 19.1295 15.9449 19.0648C16.2261 18.9463 16.4596 19.1349 16.3959 19.4312Z" fill="#3E60C1"/>
<path d="M22.238 27H22.3441C23.3682 26.9946 23.9996 26.7199 24.2649 26.165C24.3604 25.9657 24.5355 25.4377 24.0898 24.8398L22.6678 22.9004C22.498 22.6796 22.4024 22.5395 22.3653 22.4371C24.7106 19.9483 26 16.6945 26 13.2522C26 5.94733 20.1686 0 13 0C5.82612 0 0 5.94194 0 13.2522C0 20.5517 5.82612 26.4936 12.9947 26.4936C14.4008 26.4936 15.7857 26.262 17.1016 25.8148C17.16 25.831 17.2024 25.8472 17.2184 25.8579C17.7384 26.1057 18.2 26.2943 18.6882 26.4613C18.858 26.5152 19.0171 26.5583 19.1763 26.6014L19.3939 26.6606C20.2269 26.8815 21.182 27 22.238 27ZM12.9947 1.86931C19.1498 1.86931 24.1641 6.97626 24.1641 13.2522C24.1641 16.2797 23.002 19.1349 20.8955 21.2951L20.7841 21.4082L20.7151 21.5537C20.5029 22.0062 20.471 22.5072 20.6143 23.0028C20.7576 23.4284 20.9751 23.7247 21.198 24.0263L22.0045 25.1307C21.2033 25.1145 20.4922 25.0229 19.882 24.8506L19.6327 24.7859C19.5053 24.7536 19.378 24.7213 19.2506 24.6782C18.842 24.5381 18.4441 24.3765 18.0461 24.1879C17.818 24.0587 17.4943 23.9617 17.1122 23.9294L16.8257 23.924L16.6771 23.9779C15.4939 24.4034 14.2522 24.6189 12.9841 24.6189C6.83429 24.6189 1.82531 19.5174 1.82531 13.2468C1.83592 6.97626 6.83959 1.86931 12.9947 1.86931Z" fill="#3E60C1"/>
</svg>
