<svg width="37" height="37" viewBox="0 0 37 37" fill="none" xmlns="http://www.w3.org/2000/svg">
<path d="M36.4396 19.7382L34.1484 21.7476C33.6475 22.1873 33.4611 22.8846 33.6759 23.5151L34.655 26.3982C34.9752 27.3403 34.3918 28.3492 33.4155 28.5428L30.4285 29.1334C29.7739 29.2629 29.263 29.7737 29.1335 30.4284L28.5429 33.4154C28.3494 34.3916 27.3404 34.9751 26.3983 34.6549L23.5152 33.6758C22.8848 33.4624 22.1874 33.6488 21.7477 34.1483L19.7383 36.4394C19.0823 37.1866 17.9196 37.1866 17.2636 36.4394L15.2542 34.1483C14.8145 33.6474 14.1172 33.4609 13.4868 33.6758L10.6022 34.6549C9.6601 34.9751 8.65114 34.3916 8.4576 33.4154L7.86702 30.4284C7.73752 29.7737 7.22664 29.2629 6.57202 29.1334L3.58499 28.5428C2.60875 28.3492 2.02529 27.3403 2.34549 26.3982L3.32456 23.5151C3.53802 22.8846 3.3516 22.1873 2.8521 21.7476L0.560947 19.7382C-0.186168 19.0822 -0.186168 17.9195 0.560947 17.2635L2.8521 15.2541C3.35302 14.8144 3.53945 14.1171 3.32456 13.4866L2.34549 10.6021C2.02529 9.65998 2.60875 8.65102 3.58499 8.45748L6.57202 7.8669C7.22664 7.7374 7.73752 7.22652 7.86702 6.5719L8.4576 3.58486C8.65114 2.60863 9.6601 2.02517 10.6022 2.34536L13.4853 3.32444C14.1158 3.5379 14.8131 3.35148 15.2528 2.85198L17.2622 0.560825C17.9182 -0.186291 19.0809 -0.186291 19.7369 0.560825L21.7463 2.85198C22.186 3.3529 22.8833 3.53932 23.5138 3.32444L26.3969 2.34536C27.339 2.02517 28.3479 2.60863 28.5415 3.58486L29.1321 6.5719C29.2616 7.22652 29.7724 7.7374 30.4271 7.8669L33.4141 8.45748C34.3903 8.65102 34.9738 9.65998 34.6536 10.6021L33.6745 13.4852C33.4611 14.1156 33.6475 14.8129 34.147 15.2527L36.4381 17.2621C37.1867 17.9181 37.1867 19.0822 36.4396 19.7382Z" fill="#EF4665"/>
<path d="M14.5965 18.1554C15.0106 17.9803 15.3834 17.7299 15.705 17.4111C16.3696 16.7508 16.7354 15.8756 16.7354 14.9449C16.7354 14.0213 16.3696 13.1476 15.705 12.4858C15.3834 12.1656 15.0106 11.9138 14.5979 11.7373C14.1695 11.5551 13.717 11.4626 13.2531 11.4626C12.3252 11.4626 11.4515 11.8241 10.794 12.4787C10.1337 13.1362 9.77081 14.0128 9.77081 14.9449C9.77081 15.8841 10.1351 16.7622 10.7954 17.4182C11.4515 18.0686 12.3252 18.4272 13.2545 18.4272C13.7156 18.4272 14.1681 18.3361 14.5965 18.1554ZM15.0035 14.9449C15.0035 15.9112 14.2179 16.6967 13.2517 16.6967C12.2854 16.6967 11.4999 15.9112 11.4999 14.9449C11.4999 13.9786 12.2854 13.1931 13.2517 13.1931C14.2179 13.1931 15.0035 13.9786 15.0035 14.9449Z" fill="white"/>
<path d="M26.2002 19.5955C25.8786 19.2753 25.5058 19.0234 25.0931 18.8469C24.6647 18.6648 24.2122 18.5723 23.7483 18.5723C22.8204 18.5723 21.9481 18.9337 21.2892 19.5883C20.6289 20.2458 20.266 21.1224 20.266 22.0545C20.266 22.9938 20.6303 23.8718 21.2906 24.5278C21.9466 25.1782 22.8204 25.5368 23.7497 25.5368C24.2136 25.5368 24.6661 25.4457 25.0931 25.265C25.5072 25.09 25.88 24.8395 26.2016 24.5207C26.8662 23.8604 27.232 22.9852 27.232 22.0545C27.2305 21.131 26.8648 20.2572 26.2002 19.5955ZM25.4986 22.0545C25.4986 23.0208 24.7131 23.8063 23.7468 23.8063C22.7806 23.8063 21.995 23.0208 21.995 22.0545C21.995 21.0883 22.7806 20.3027 23.7468 20.3027C24.7131 20.3027 25.4986 21.0883 25.4986 22.0545Z" fill="white"/>
<path d="M23.7241 12.1799C23.6159 11.9209 23.3868 11.7416 23.1079 11.7017C22.8233 11.6605 22.5387 11.7786 22.3665 12.0105L13.3726 24.0469C13.2047 24.2718 13.1691 24.5606 13.2758 24.8196C13.384 25.0786 13.6131 25.2579 13.892 25.2978C13.929 25.3035 13.966 25.3063 14.003 25.3063C14.2492 25.3063 14.484 25.1911 14.6335 24.9904L23.6273 12.954C23.7952 12.7278 23.8322 12.4389 23.7241 12.1799Z" fill="white"/>
</svg>
