<svg width="22" height="22" viewBox="0 0 22 22" fill="none" xmlns="http://www.w3.org/2000/svg">
<path d="M21.9399 6.4682C21.8884 5.29925 21.6993 4.49561 21.4285 3.79925C21.1492 3.06007 20.7194 2.39829 20.1563 1.84814C19.6062 1.28944 18.9401 0.855303 18.2094 0.580315C17.509 0.309525 16.7096 0.120492 15.5406 0.0689528C14.363 0.0130488 13.9891 0.00012207 11.0022 0.00012207C8.01526 0.00012207 7.64139 0.0130488 6.46808 0.064588C5.29913 0.116127 4.49549 0.305328 3.79929 0.57595C3.05995 0.855303 2.39817 1.28508 1.84802 1.84814C1.28932 2.39829 0.855348 3.06444 0.580193 3.79505C0.309403 4.49561 0.12037 5.29489 0.0688308 6.46384C0.0129267 7.64151 0 8.01538 0 11.0023C0 13.9892 0.0129267 14.3631 0.0644659 15.5364C0.116005 16.7054 0.305206 17.509 0.575996 18.2054C0.855348 18.9445 1.28932 19.6063 1.84802 20.1565C2.39817 20.7152 3.06431 21.1493 3.79493 21.4243C4.49549 21.6951 5.29477 21.8841 6.46388 21.9357C7.63703 21.9874 8.01106 22.0001 10.998 22.0001C13.9849 22.0001 14.3588 21.9874 15.5321 21.9357C16.701 21.8841 17.5047 21.6951 18.2009 21.4243C19.6794 20.8527 20.8483 19.6837 21.42 18.2054C21.6906 17.5048 21.8798 16.7054 21.9313 15.5364C21.9829 14.3631 21.9958 13.9892 21.9958 11.0023C21.9958 8.01538 21.9914 7.64151 21.9399 6.4682ZM19.9587 15.4505C19.9114 16.5249 19.7309 17.1051 19.5805 17.4919C19.2108 18.4503 18.4502 19.211 17.4918 19.5806C17.105 19.7311 16.5206 19.9115 15.4503 19.9587C14.2899 20.0104 13.9419 20.0232 11.0065 20.0232C8.07117 20.0232 7.71879 20.0104 6.5626 19.9587C5.48816 19.9115 4.90797 19.7311 4.52118 19.5806C4.04423 19.4044 3.61009 19.125 3.25771 18.7597C2.8924 18.403 2.61305 17.9732 2.43678 17.4962C2.28636 17.1094 2.10589 16.5249 2.05871 15.4548C2.00701 14.2944 1.99425 13.9462 1.99425 11.0109C1.99425 8.07548 2.00701 7.7231 2.05871 6.56708C2.10589 5.49265 2.28636 4.91246 2.43678 4.52566C2.61305 4.04855 2.8924 3.61458 3.26208 3.26203C3.61865 2.89672 4.04843 2.61737 4.52554 2.44126C4.91234 2.29084 5.49689 2.11037 6.56696 2.06303C7.72735 2.01149 8.07553 1.99857 11.0107 1.99857C13.9505 1.99857 14.2985 2.01149 15.4547 2.06303C16.5291 2.11037 17.1093 2.29084 17.4961 2.44126C17.9731 2.61737 18.4072 2.89672 18.7596 3.26203C19.1249 3.61877 19.4042 4.04855 19.5805 4.52566C19.7309 4.91246 19.9114 5.49685 19.9587 6.56708C20.0103 7.72747 20.0232 8.07548 20.0232 11.0109C20.0232 13.9462 20.0103 14.2901 19.9587 15.4505Z" fill="#979EB0"/>
<path d="M11.0021 5.35083C7.88205 5.35083 5.35059 7.88212 5.35059 11.0023C5.35059 14.1226 7.88205 16.6539 11.0021 16.6539C14.1223 16.6539 16.6536 14.1226 16.6536 11.0023C16.6536 7.88212 14.1223 5.35083 11.0021 5.35083ZM11.0021 14.6683C8.97797 14.6683 7.3361 13.0266 7.3361 11.0023C7.3361 8.97804 8.97797 7.33635 11.0021 7.33635C13.0264 7.33635 14.6681 8.97804 14.6681 11.0023C14.6681 13.0266 13.0264 14.6683 11.0021 14.6683Z" fill="#979EB0"/>
<path d="M18.197 5.1276C18.197 5.85634 17.6061 6.44722 16.8772 6.44722C16.1485 6.44722 15.5576 5.85634 15.5576 5.1276C15.5576 4.3987 16.1485 3.80798 16.8772 3.80798C17.6061 3.80798 18.197 4.3987 18.197 5.1276Z" fill="#979EB0"/>
</svg>
