<svg width="30" height="20" viewBox="0 0 30 20" fill="none" xmlns="http://www.w3.org/2000/svg">
<path d="M29.3986 3.12964C29.0644 1.90591 28.0849 0.941245 26.8427 0.61173C24.5733 0.00012207 15.4958 0.00012207 15.4958 0.00012207C15.4958 0.00012207 6.41856 0.00012207 4.14921 0.588542C2.93091 0.917708 1.92748 1.90608 1.5933 3.12964C0.996094 5.36477 0.996094 10.0001 0.996094 10.0001C0.996094 10.0001 0.996094 14.6588 1.5933 16.8706C1.92783 18.0942 2.90701 19.0588 4.14939 19.3883C6.44245 20.0001 15.4961 20.0001 15.4961 20.0001C15.4961 20.0001 24.5733 20.0001 26.8427 19.4117C28.0851 19.0824 29.0644 18.1177 29.3989 16.8941C29.996 14.6588 29.996 10.0237 29.996 10.0237C29.996 10.0237 30.0199 5.36477 29.3986 3.12964ZM12.6057 14.2824V5.71782L20.1541 10.0001L12.6057 14.2824Z" fill="#979EB0"/>
</svg>
