<svg width="22" height="22" viewBox="0 0 22 22" fill="none" xmlns="http://www.w3.org/2000/svg">
<path d="M22 11.0001C22 4.92592 17.0742 0.00012207 11 0.00012207C4.9258 0.00012207 0 4.92592 0 11.0001C0 17.0743 4.9258 22.0001 11 22.0001C11.0646 22.0001 11.1289 21.9988 11.1934 21.9976V13.4346H8.83008V10.6804H11.1934V8.65363C11.1934 6.3031 12.6283 5.02377 14.725 5.02377C15.7291 5.02377 16.5921 5.09863 16.8438 5.13203V7.58864H15.3979C14.2572 7.58864 14.0363 8.13078 14.0363 8.92621V10.6804H16.7639L16.4084 13.4346H14.0363V21.5751C18.6342 20.257 22 16.0211 22 11.0001Z" fill="#979EB0"/>
</svg>
