<svg width="25" height="28" viewBox="0 0 25 28" fill="none" xmlns="http://www.w3.org/2000/svg">
<path d="M1.38889 0H23.6111C23.9795 0 24.3327 0.1475 24.5932 0.41005C24.8537 0.672601 25 1.0287 25 1.4V26.6C25 26.9713 24.8537 27.3274 24.5932 27.59C24.3327 27.8525 23.9795 28 23.6111 28H1.38889C1.02053 28 0.667263 27.8525 0.406796 27.59C0.146329 27.3274 0 26.9713 0 26.6V1.4C0 1.0287 0.146329 0.672601 0.406796 0.41005C0.667263 0.1475 1.02053 0 1.38889 0ZM2.77778 2.8V25.2H22.2222V2.8H2.77778ZM5.55556 5.6H19.4444V11.2H5.55556V5.6ZM5.55556 14H8.33333V16.8H5.55556V14ZM5.55556 19.6H8.33333V22.4H5.55556V19.6ZM11.1111 14H13.8889V16.8H11.1111V14ZM11.1111 19.6H13.8889V22.4H11.1111V19.6ZM16.6667 14H19.4444V22.4H16.6667V14Z" fill="white"/>
</svg>
