<svg width="132" height="49" viewBox="0 0 132 49" fill="none" xmlns="http://www.w3.org/2000/svg">
<path d="M60.807 0.761657H67.3893C69.0706 0.761657 70.4997 1.33713 71.6766 2.48808C72.8367 3.63903 73.4167 5.05233 73.4167 6.72798C73.4167 8.40363 72.8367 9.81693 71.6766 10.9679C70.4997 12.1188 69.0706 12.6943 67.3893 12.6943H64.2873V18.5337H60.807V0.761657ZM64.2873 9.41917H67.3893C68.1291 9.41917 68.7427 9.16529 69.2303 8.65751C69.7179 8.13282 69.9617 7.48964 69.9617 6.72798C69.9617 5.9494 69.7179 5.30622 69.2303 4.79845C68.7427 4.29067 68.1291 4.03679 67.3893 4.03679H64.2873V9.41917Z" fill="white"/>
<path d="M85.4373 16.9596C84.1595 18.2459 82.5791 18.8891 80.6961 18.8891C78.813 18.8891 77.2326 18.2459 75.9548 16.9596C74.677 15.6732 74.0381 14.0822 74.0381 12.1865C74.0381 10.3078 74.677 8.72522 75.9548 7.43886C77.2494 6.13558 78.8298 5.48394 80.6961 5.48394C82.5623 5.48394 84.1427 6.13558 85.4373 7.43886C86.7319 8.74214 87.3792 10.3247 87.3792 12.1865C87.3792 14.0653 86.7319 15.6563 85.4373 16.9596ZM78.2498 14.7C78.9055 15.3601 79.7209 15.6902 80.6961 15.6902C81.6712 15.6902 82.4866 15.3601 83.1423 14.7C83.798 14.0399 84.1259 13.2021 84.1259 12.1865C84.1259 11.171 83.798 10.3332 83.1423 9.67306C82.4866 9.01295 81.6712 8.6829 80.6961 8.6829C79.7209 8.6829 78.9055 9.01295 78.2498 9.67306C77.6109 10.3501 77.2914 11.1879 77.2914 12.1865C77.2914 13.1851 77.6109 14.023 78.2498 14.7Z" fill="white"/>
<path d="M92.9212 18.5337H89.6679V0H92.9212V18.5337Z" fill="white"/>
<path d="M97.5129 4.31606C96.9749 4.31606 96.5041 4.12142 96.1006 3.73213C95.7139 3.32591 95.5205 2.85199 95.5205 2.31036C95.5205 1.76874 95.7139 1.29482 96.1006 0.8886C96.5041 0.482383 96.9749 0.279274 97.5129 0.279274C98.0677 0.279274 98.5385 0.482383 98.9252 0.8886C99.3287 1.29482 99.5304 1.76874 99.5304 2.31036C99.5304 2.85199 99.3287 3.32591 98.9252 3.73213C98.5385 4.12142 98.0677 4.31606 97.5129 4.31606ZM99.1521 18.5337H95.8988V5.83938H99.1521V18.5337Z" fill="white"/>
<path d="M109.141 12.0342L113.756 18.5337H109.998L107.275 14.6746L104.526 18.5337H100.768L105.383 12.0596L100.97 5.83938H104.727L107.275 9.41917L109.822 5.83938H113.554L109.141 12.0342Z" fill="white"/>
<path d="M69.2807 34.3762H78.1327V35.7472C78.1327 38.286 77.3257 40.3425 75.7117 41.9166C74.0976 43.4907 72.0128 44.2777 69.4573 44.2777C66.7336 44.2777 64.4722 43.3891 62.6733 41.6119C60.8911 39.8178 60 37.6344 60 35.0617C60 32.472 60.8827 30.2801 62.648 28.486C64.4302 26.6919 66.6327 25.7948 69.2555 25.7948C70.8864 25.7948 72.3827 26.1672 73.7446 26.9119C75.1064 27.6567 76.174 28.6637 76.9474 29.9332L73.9715 31.6596C73.5512 30.9318 72.9123 30.3394 72.0549 29.8824C71.1974 29.4254 70.2559 29.1969 69.2303 29.1969C67.5322 29.1969 66.1451 29.7554 65.0691 30.8725C63.9931 31.9558 63.4551 33.3522 63.4551 35.0617C63.4551 36.7373 64.0015 38.1252 65.0943 39.2254C66.1872 40.3086 67.6499 40.8503 69.4825 40.8503C70.8107 40.8503 71.9204 40.5541 72.8115 39.9617C73.7025 39.3693 74.3078 38.5399 74.6273 37.4736H69.2807V34.3762Z" fill="white"/>
<path d="M83.7102 31.228V33.4114C83.996 32.6159 84.4836 32.015 85.1729 31.6088C85.8622 31.1857 86.6524 30.9741 87.5435 30.9741V34.6301C86.5516 34.4947 85.6605 34.6978 84.8703 35.2394C84.0969 35.7641 83.7102 36.6358 83.7102 37.8544V43.9223H80.4569V31.228H83.7102Z" fill="white"/>
<path d="M99.7217 42.3482C98.444 43.6345 96.8635 44.2777 94.9805 44.2777C93.0974 44.2777 91.517 43.6345 90.2392 42.3482C88.9615 41.0618 88.3226 39.4708 88.3226 37.5751C88.3226 35.6964 88.9615 34.1138 90.2392 32.8275C91.5338 31.5242 93.1143 30.8725 94.9805 30.8725C96.8467 30.8725 98.4271 31.5242 99.7217 32.8275C101.016 34.1307 101.664 35.7133 101.664 37.5751C101.664 39.4539 101.016 41.0449 99.7217 42.3482ZM92.5342 40.0886C93.1899 40.7487 94.0053 41.0788 94.9805 41.0788C95.9556 41.0788 96.7711 40.7487 97.4268 40.0886C98.0825 39.4285 98.4103 38.5907 98.4103 37.5751C98.4103 36.5596 98.0825 35.7218 97.4268 35.0617C96.7711 34.4016 95.9556 34.0715 94.9805 34.0715C94.0053 34.0715 93.1899 34.4016 92.5342 35.0617C91.8953 35.7387 91.5759 36.5765 91.5759 37.5751C91.5759 38.5737 91.8953 39.4116 92.5342 40.0886Z" fill="white"/>
<path d="M112.275 38.0829V31.228H115.528V43.9223H112.275V42.5005C111.501 43.6853 110.249 44.2777 108.517 44.2777C107.138 44.2777 105.995 43.8123 105.087 42.8813C104.196 41.9335 103.751 40.6472 103.751 39.0223V31.228H107.004V38.6161C107.004 39.4454 107.222 40.0886 107.66 40.5456C108.113 41.0026 108.727 41.2311 109.501 41.2311C110.358 41.2311 111.031 40.9687 111.518 40.444C112.022 39.9024 112.275 39.1154 112.275 38.0829Z" fill="white"/>
<path d="M125.846 30.8725C127.545 30.8725 128.99 31.5242 130.184 32.8275C131.395 34.1307 132 35.7133 132 37.5751C132 39.4708 131.395 41.0618 130.184 42.3482C129.007 43.6345 127.561 44.2777 125.846 44.2777C124.081 44.2777 122.719 43.6599 121.761 42.4244V49H118.508V31.228H121.761V32.7259C122.719 31.4903 124.081 30.8725 125.846 30.8725ZM122.744 40.1648C123.4 40.8249 124.232 41.1549 125.241 41.1549C126.25 41.1549 127.082 40.8249 127.738 40.1648C128.41 39.4877 128.747 38.6245 128.747 37.5751C128.747 36.5257 128.41 35.671 127.738 35.0109C127.082 34.3339 126.25 33.9953 125.241 33.9953C124.232 33.9953 123.4 34.3339 122.744 35.0109C122.089 35.671 121.761 36.5257 121.761 37.5751C121.761 38.6245 122.089 39.4877 122.744 40.1648Z" fill="white"/>
<path d="M15.9538 0C14.2263 0 11.8383 0.965358 10.6697 2.18476L6.19861 6.65589C8.18014 5.84296 10.2125 5.38568 12.2448 5.38568C13.0577 5.38568 13.8199 5.43649 14.6328 5.58891C19.8152 6.40185 23.7783 8.73903 26.2171 10.5681C28.7575 12.448 30.0785 14.1247 30.2818 14.3279C30.8406 14.9376 31.2979 15.5473 31.7044 16.2079C31.1963 13.4134 30.0277 9.60277 27.3857 5.94457C23.2702 0.203233 16.7159 0 15.9538 0Z" fill="white"/>
<path d="M12.2956 6.60508C6.50347 6.60508 2.64203 10.2633 2.18476 10.6697L2.13395 10.7206C0.965358 11.8891 0 14.2771 0 15.903V22.254C0.863741 20.0693 2.4388 17.5289 5.23326 15.4965C11.1778 11.1778 17.4781 10.5173 20.7298 10.5173C21.7968 10.5173 22.4065 10.5681 22.5081 10.6189C23.321 10.6697 24.0831 10.7714 24.8453 10.9746C22.5081 9.34873 19.0023 7.46882 14.5312 6.75751C13.7691 6.65589 13.0069 6.60508 12.2956 6.60508Z" fill="white"/>
<path d="M35.7691 5.79215C34.7021 3.60739 33.4319 2.28637 33.2794 2.18476L33.2286 2.13395C32.06 0.965358 29.6721 0 27.9954 0H21.6952C23.8799 0.863741 26.4203 2.4388 28.4018 5.23326C31.5012 9.50115 32.6697 13.9215 33.0762 16.9192C33.5335 20.0693 33.2794 22.3049 33.2794 22.4573C33.2286 23.2702 33.127 24.0323 32.9238 24.7945C34.5497 22.4573 36.4296 18.9515 37.1409 14.4804C37.649 11.5335 37.1409 8.58661 35.7691 5.79215Z" fill="white"/>
<path d="M17.6813 33.4319C15.1917 31.552 13.8199 29.8753 13.6166 29.6721C13.0577 29.0624 12.6005 28.4527 12.194 27.7921C12.7021 30.5866 13.8707 34.3972 16.5127 38.0554C20.679 43.7968 27.2333 44 27.9446 44H27.9954C29.6721 44 32.06 43.0346 33.2286 41.8152L37.6998 37.3441C35.7182 38.157 33.7367 38.6143 31.6536 38.6143C30.8406 38.6143 30.0785 38.5635 29.2656 38.4111C24.0831 37.5473 20.1201 35.2102 17.6813 33.4319Z" fill="white"/>
<path d="M14.3279 13.6166C14.9376 13.0577 15.5473 12.6005 16.2079 12.194C13.261 12.7021 9.55196 13.9215 5.94457 16.5127C0.254042 20.679 0 27.2333 0 27.9446V28.0462C0 29.7229 0.965358 32.1109 2.18476 33.2794L6.65589 37.7506C5.74134 35.6166 5.08083 32.6697 5.58891 29.3164C6.40185 24.134 8.73903 20.1709 10.5681 17.7321C12.3972 15.1409 14.0739 13.7691 14.3279 13.6166Z" fill="white"/>
<path d="M23.2702 33.3811C22.2032 33.3811 21.5935 33.3303 21.4919 33.2794C20.679 33.2286 19.9169 33.127 19.1547 32.9238C21.4919 34.5497 24.9977 36.4296 29.4688 37.1409C30.1801 37.2425 30.9423 37.2933 31.6536 37.2933C37.4965 37.2933 41.358 33.6351 41.7644 33.2286L41.8152 33.1778C42.9838 32.0092 44 29.6212 44 27.9446V21.6952C43.0855 23.8799 41.5104 26.4203 38.7159 28.4018C32.7714 32.7206 26.4711 33.3811 23.2702 33.3811Z" fill="white"/>
<path d="M29.6212 30.3326C29.0115 30.8915 28.4018 31.3487 27.7413 31.7552C30.6882 31.2471 34.3972 30.0277 38.0046 27.4365C43.6952 23.2702 43.9492 16.7159 43.9492 16.0046V15.9538C43.9492 14.2771 42.9838 11.8891 41.7644 10.7206L37.2933 6.24942C38.4619 8.99307 38.8176 11.8383 38.3603 14.6836C37.5473 19.8661 35.2102 23.8291 33.3811 26.2679C31.552 28.8083 29.8753 30.1801 29.6212 30.3326Z" fill="white"/>
<path d="M10.6697 41.7644C11.8891 42.9838 14.2771 43.9492 15.903 43.9492H22.2032C20.0693 43.0855 17.5289 41.5104 15.4965 38.7159C12.3972 34.448 11.2286 30.0277 10.8222 27.03C10.3649 23.8799 10.6189 21.6443 10.6189 21.4919C10.6697 20.679 10.7714 19.9169 10.9746 19.1547C9.34873 21.4919 7.46882 24.9977 6.75751 29.4688C5.69053 36.4296 10.1617 41.2055 10.6697 41.7644Z" fill="white"/>
</svg>
