<svg width="32" height="33" viewBox="0 0 32 33" fill="none" xmlns="http://www.w3.org/2000/svg">
<path d="M17.5687 12.4608H13.8039V8.72258C13.8039 8.37866 13.5228 8.09954 13.1765 8.09954C12.8301 8.09954 12.549 8.37866 12.549 8.72258V12.4608H8.78431C8.43795 12.4608 8.15685 12.7399 8.15685 13.0839C8.15685 13.4278 8.43795 13.7069 8.78431 13.7069H12.549V17.4452C12.549 17.7891 12.8301 18.0682 13.1765 18.0682C13.5228 18.0682 13.8039 17.7891 13.8039 17.4452V13.7069H17.5687C17.915 13.7069 18.1961 13.4278 18.1961 13.0839C18.1961 12.7399 17.915 12.4608 17.5687 12.4608Z" fill="white"/>
<path d="M31.8251 31.9452L22.5017 22.3173C24.8798 19.9492 26.353 16.6844 26.353 13.0839C26.353 5.86905 20.4424 0 13.1765 0C5.91056 0 -6.10352e-05 5.86905 -6.10352e-05 13.0839C-6.10352e-05 20.2987 5.91056 26.1677 13.1765 26.1677C16.3658 26.1677 19.2929 25.0357 21.5743 23.1572L30.9203 32.8087C31.0433 32.9365 31.2077 33 31.3727 33C31.5295 33 31.6858 32.9421 31.8075 32.8262C32.0572 32.5875 32.0648 32.1932 31.8251 31.9452ZM1.25485 13.0839C1.25485 6.55626 6.60265 1.24608 13.1765 1.24608C19.7503 1.24608 25.0981 6.55626 25.0981 13.0839C25.0981 19.6115 19.7503 24.9216 13.1765 24.9216C6.60265 24.9216 1.25485 19.6115 1.25485 13.0839Z" fill="white"/>
</svg>
