<svg width="36" height="25" viewBox="0 0 36 25" fill="none" xmlns="http://www.w3.org/2000/svg">
<path d="M32.8359 0H3.16406C1.41328 0 0 1.40972 0 3.125V21.875C0 23.6042 1.42734 25 3.16406 25H32.8359C34.5727 25 36 23.6111 36 21.875V3.125C36 1.40972 34.5867 0 32.8359 0ZM32.393 2.08333C31.7461 2.71528 20.6227 13.6458 20.2359 14.0278C19.6383 14.6181 18.8438 14.9444 18 14.9444C17.1562 14.9444 16.3617 14.6181 15.7641 14.0278C15.5039 13.7708 4.5 2.95833 3.60703 2.08333H32.393ZM2.10938 21.4514V3.54861L11.2219 12.5069L2.10938 21.4514ZM3.60703 22.9167L12.7195 13.9722L14.2734 15.4931C15.2719 16.4792 16.5938 17.0208 18 17.0208C19.4062 17.0208 20.7352 16.4792 21.7266 15.5L23.2805 13.9722L32.393 22.9167H3.60703ZM33.8906 21.4514L24.7781 12.5069L33.8906 3.54861V21.4514Z" fill="white"/>
</svg>
