<svg width="24" height="24" viewBox="0 0 24 24" fill="none" xmlns="http://www.w3.org/2000/svg">
<path fill-rule="evenodd" clip-rule="evenodd" d="M1.68102 10.1451L13.8549 22.319C14.3878 22.8519 15.0205 23.2747 15.7168 23.5631C16.4131 23.8515 17.1594 24 17.9131 24C18.6668 24 19.4131 23.8515 20.1094 23.5631C20.8057 23.2747 21.4383 22.8519 21.9713 22.319L24 20.2902L17.9138 14.2026L15.8836 16.2313C15.3455 16.7693 14.6158 17.0715 13.8549 17.0715C13.094 17.0715 12.3643 16.7693 11.8261 16.2313L7.76867 12.1739C7.50208 11.9074 7.29062 11.591 7.14634 11.2428C7.00206 10.8946 6.9278 10.5213 6.9278 10.1444C6.9278 9.76748 7.00206 9.39424 7.14634 9.04602C7.29062 8.6978 7.50208 8.38142 7.76867 8.11495L9.7974 6.08621L3.70976 0L1.68102 2.02874C1.14807 2.56166 0.725315 3.19433 0.436884 3.89064C0.148454 4.58695 0 5.33325 0 6.08693C0 6.84061 0.148454 7.58691 0.436884 8.28322C0.725315 8.97953 1.14807 9.6122 1.68102 10.1451Z" fill="white"/>
</svg>
