<svg width="6" height="11" viewBox="0 0 6 11" fill="none" xmlns="http://www.w3.org/2000/svg">
<path d="M0.355469 3.2334C0.393555 2.50977 0.649577 1.91943 1.12354 1.4624C1.60173 1.00114 2.26823 0.770508 3.12305 0.770508C3.91439 0.770508 4.55973 0.988444 5.05908 1.42432C5.56266 1.86019 5.81445 2.4082 5.81445 3.06836C5.81445 3.99512 5.37223 4.7251 4.48779 5.2583C4.09001 5.49528 3.81706 5.71956 3.66895 5.93115C3.52507 6.14274 3.45312 6.41781 3.45312 6.75635V7.16895H2.34229V6.58496C2.33805 6.17025 2.4375 5.81055 2.64062 5.50586C2.84798 5.20117 3.17171 4.91764 3.61182 4.65527C3.98421 4.42676 4.24658 4.19824 4.39893 3.96973C4.5555 3.74121 4.63379 3.4598 4.63379 3.12549C4.63379 2.7277 4.48991 2.40186 4.20215 2.14795C3.91862 1.88981 3.54411 1.76074 3.07861 1.76074C2.60042 1.76074 2.21533 1.89193 1.92334 2.1543C1.63558 2.41667 1.47477 2.77637 1.44092 3.2334H0.355469ZM2.90088 10.0635C2.69775 10.0635 2.52637 9.99365 2.38672 9.854C2.24707 9.71436 2.17725 9.54297 2.17725 9.33984C2.17725 9.13249 2.24707 8.9611 2.38672 8.82568C2.52637 8.68604 2.69775 8.61621 2.90088 8.61621C3.10824 8.61621 3.27962 8.68604 3.41504 8.82568C3.55469 8.9611 3.62451 9.13249 3.62451 9.33984C3.62451 9.54297 3.55469 9.71436 3.41504 9.854C3.27962 9.99365 3.10824 10.0635 2.90088 10.0635Z" fill="white"/>
</svg>
