<svg width="171" height="60" viewBox="0 0 171 60" fill="none" xmlns="http://www.w3.org/2000/svg">
<path d="M19.2555 -1.10735e-06C23.279 -1.10735e-06 24.716 2.87081 25.5781 5.74163C26.1529 6.88995 36.7866 36.1722 37.0739 37.0335C37.0739 37.3206 37.0739 37.6077 36.7866 37.8947C36.4992 37.8947 30.7513 40.1914 30.4639 40.1914C30.1765 40.1914 29.8891 40.1914 29.8891 39.9043C29.8891 39.6172 27.5899 33.3014 27.3025 32.4402H11.4958C11.2084 33.0144 8.90924 39.6172 8.90924 39.9043C8.90924 40.1914 8.33445 40.4785 8.04706 40.1914C7.75966 40.1914 2.29916 37.8947 1.72437 37.8947C1.43697 37.8947 1.14958 37.3206 1.43697 37.0335C1.72437 35.8852 12.358 7.46411 12.9328 5.74163C13.795 2.87081 15.2319 -1.10735e-06 19.2555 -1.10735e-06ZM0.574789 51.9617C0.287394 51.9617 0 52.2488 0 52.5359V59.4258C0 59.7129 0.287394 60 0.574789 60H37.9361C38.2235 60 38.5109 59.7129 38.5109 59.4258V52.5359C38.5109 52.2488 38.2235 51.9617 37.9361 51.9617H0.574789ZM19.2555 9.47369L13.795 25.5502H24.4286L19.2555 9.47369ZM99.1513 35.5981C98.2891 35.8852 97.7143 35.8852 97.1395 35.8852C95.9899 35.8852 95.1277 35.311 95.1277 34.1627C95.1277 32.7273 95.9899 32.4402 97.7143 32.4402C98.0017 32.4402 98.5765 32.4402 98.8639 32.4402V33.3014C98.8639 34.4498 99.1513 35.0239 99.1513 35.5981ZM103.75 37.0335C102.887 35.5981 102.6 34.7368 102.6 33.0144V29.2823C102.6 27.2727 102.313 26.6986 101.738 25.8373C100.876 24.689 99.726 24.4019 97.7143 24.4019C96.2773 24.4019 94.5529 24.689 93.116 24.9761L93.6907 27.5598C94.5529 27.5598 95.7025 27.2727 96.5647 27.2727C98.8639 27.2727 99.1513 27.5598 99.1513 29.2823V29.8565C98.5765 29.8565 98.0017 29.5694 97.4269 29.5694C93.9782 29.5694 91.9664 31.2919 91.9664 34.1627C91.9664 36.7464 93.9781 38.1818 96.2773 38.1818C97.1395 38.1818 98.0017 37.8947 98.8639 37.6077C99.4387 37.3206 99.4386 37.3206 100.013 37.0335C100.301 37.6077 101.163 38.1818 101.45 38.1818C101.45 38.756 103.75 37.0335 103.75 37.0335ZM138.812 35.5981C137.95 35.8852 137.375 35.8852 136.8 35.8852C135.65 35.8852 134.788 35.311 134.788 34.1627C134.788 32.7273 135.65 32.4402 137.375 32.4402C137.662 32.4402 138.237 32.4402 138.524 32.4402V33.3014C138.524 34.4498 138.812 35.0239 138.812 35.5981ZM143.41 37.0335C142.548 35.5981 142.26 34.7368 142.26 33.0144V29.2823C142.26 27.2727 141.973 26.6986 141.398 25.8373C140.824 24.689 139.387 24.4019 137.375 24.4019C135.938 24.4019 134.213 24.689 132.776 24.9761L133.351 27.5598C134.213 27.5598 135.363 27.2727 136.225 27.2727C138.524 27.2727 138.812 27.5598 138.812 29.2823V29.8565C138.237 29.8565 137.662 29.5694 137.087 29.5694C133.639 29.5694 131.627 31.2919 131.627 34.1627C131.627 36.7464 133.639 38.1818 136.225 38.1818C137.087 38.1818 137.95 37.8947 138.812 37.6077C139.387 37.3206 139.387 37.3206 139.961 37.0335C140.249 37.6077 141.111 38.1818 141.398 38.1818L143.41 37.0335ZM171 38.4689C171 38.4689 168.988 34.4498 168.701 33.3014C168.126 32.1531 167.551 31.5789 166.689 31.2919C167.551 31.2919 168.126 30.7177 168.701 29.2823C169.276 27.8469 169.563 27.5598 169.85 27.2727C170.138 26.9856 170.713 26.9856 170.713 26.9856L171 24.4019C170.425 24.4019 169.85 24.4019 169.276 24.4019C168.413 24.4019 167.839 24.689 167.264 25.2632C166.976 25.5502 166.689 26.1244 166.402 26.6986C166.114 27.2727 165.827 27.8469 165.539 28.7081C165.252 29.2823 164.965 29.8565 164.103 29.8565H163.528V18.9474H160.079V38.1818H163.528V32.7273H164.103C165.252 32.7273 165.252 33.0144 165.827 34.1627C166.402 35.311 167.551 38.4689 167.551 38.4689H171V38.4689ZM70.9865 38.4689H75.0101L68.6874 19.5215C68.1126 19.2344 67.2504 19.2344 66.3882 19.2344C65.526 19.2344 65.2387 19.2344 64.3765 19.5215L57.7664 38.4689H61.7899C61.7899 38.4689 62.3647 36.7464 62.9395 34.7368H69.837C70.4118 36.7464 70.9865 38.4689 70.9865 38.4689ZM64.0891 31.5789C64.0891 31.5789 65.2387 27.8469 65.526 27.2727C66.1008 25.8373 66.6756 23.2536 66.6756 23.2536C66.6756 23.2536 67.2504 25.8373 67.8252 27.2727C68.1126 27.8469 68.9748 31.5789 68.9748 31.5789H64.0891ZM109.785 29.2823C108.635 29.2823 107.486 30.4306 107.486 31.5789C107.486 32.7273 108.635 33.8756 109.785 33.8756C110.934 33.8756 112.084 32.7273 112.084 31.5789C112.084 30.4306 110.934 29.2823 109.785 29.2823ZM79.8958 19.2344H76.4471V38.4689H79.8958V19.2344ZM150.595 27.5598C152.607 27.5598 152.894 28.134 152.894 29.5694V38.1818H156.343V29.2823C156.343 27.2727 156.055 26.6986 155.481 25.8373C154.618 24.689 153.469 24.4019 150.882 24.4019C148.583 24.4019 146.859 24.689 145.134 25.2632V38.1818H148.583V27.5598C149.733 27.5598 149.733 27.5598 150.595 27.5598ZM88.805 18.9474C86.5059 18.9474 85.3563 19.5215 84.7815 20.3828C84.2067 21.244 83.9193 21.8182 83.9193 23.8278V25.5502H82.195V28.4211H83.9193V38.4689H87.3681V28.4211H90.8168V25.5502H87.3681V24.1148C87.3681 22.3923 87.6555 22.1053 89.9546 22.1053C90.242 22.1053 90.5294 22.1053 90.8168 22.1053L91.3916 19.2344C90.5294 18.9474 89.6672 18.9474 88.805 18.9474ZM116.97 18.9474C118.119 18.9474 120.993 18.6603 122.718 18.6603C123.005 18.6603 123.292 18.6603 123.58 18.6603C127.029 18.6603 128.753 20.9569 128.753 23.8278C128.753 25.8373 127.891 26.9856 125.879 27.8469C128.466 28.4211 129.615 30.4306 129.615 32.7273C129.615 34.4498 129.04 35.8852 128.178 36.7464C127.029 37.8947 125.304 38.4689 123.005 38.4689C120.993 38.4689 118.407 38.4689 116.97 38.4689C116.97 38.4689 116.97 18.9474 116.97 18.9474ZM122.718 22.1053C122.143 22.1053 121.281 22.1053 120.706 22.1053V26.6986H122.718C123.58 26.6986 124.155 26.4115 124.729 26.1244C125.017 25.8373 125.304 25.2632 125.304 24.4019C125.304 22.9665 124.442 22.1053 122.718 22.1053ZM122.718 35.311C124.729 35.311 125.879 34.4498 125.879 32.4402C125.879 31.866 125.592 31.0048 125.017 30.7177C124.442 30.1435 123.58 29.8565 122.718 29.8565H120.418V35.5981C121.281 35.311 121.855 35.311 122.718 35.311Z" fill="#EE2A23"/>
</svg>
