<svg width="40" height="40" viewBox="0 0 40 40" fill="none" xmlns="http://www.w3.org/2000/svg">
<path d="M8.6 0H5.8V9H8.6V0ZM36.8 37H2.8V18H0V39.8H39.6V18H36.8V37ZM28.8 4.1H10.8V6.9H28.8V4.1ZM35.9 4.1V6.9H36.8V13H2.8V6.9H3.8V4.1H0V16H39.6V4.1H35.9ZM33.7 0H30.9V8.9H33.7V0ZM4.8 34H10.8V31H4.8V34ZM12.8 28H18.8V25H12.8V28ZM10.8 19H4.8V22H10.8V19ZM4.8 28H10.8V25H4.8V28ZM12.8 34H18.8V31H12.8V34ZM28.8 28H34.8V25H28.8V28ZM34.8 19H28.8V22H34.8V19ZM28.8 34H34.8V31H28.8V34ZM18.8 19H12.8V22H18.8V19ZM20.8 28H26.8V25H20.8V28ZM20.8 34H26.8V31H20.8V34ZM26.8 19H20.8V22H26.8V19Z" fill="#3E60C1"/>
</svg>
