<svg width="46" height="33" viewBox="0 0 46 33" fill="none" xmlns="http://www.w3.org/2000/svg">
<path d="M27.5 2.8C33.6 2.8 39.1 5.6 42.7 10.4L45 8.7C40.8 3.2 34.5 0 27.5 0C20.1 0 13.3 3.7 9.2 9.8L11.5 11.3C15.1 6 21 2.8 27.5 2.8ZM45.8 23.1C45.8 12.8 37.9 5 27.5 5C17 5 9.1 12.8 9.1 23.1V28H45.8V23.1ZM43 25.1H11.9V23C11.9 14.2 18.7 7.7 27.5 7.7C36.3 7.7 43 14.1 43 23V25.1ZM17.3 14.5L19.4 16.4C21.5 14.1 24.4 12.9 27.5 12.9C30.6 12.9 33.5 14.2 35.6 16.4L37.7 14.5C35 11.6 31.4 10 27.5 10C23.6 10 20 11.6 17.3 14.5ZM5.3 30L6.9 29V25.7L0 30.2L1 32.8H46V30H5.3Z" fill="#3E60C1"/>
</svg>
