<svg width="42" height="33" viewBox="0 0 42 33" fill="none" xmlns="http://www.w3.org/2000/svg">
<path d="M35.8 29.8H2.8V2.8H35.8V4.8H38.6V0H0V32.6H38.6V27.8H35.8V29.8ZM29.7 14.9C30.3 15.1 30.8 15.7 30.8 16.3C30.8 17.1 30.1 17.8 29.3 17.8C28.8 17.8 28.4 17.6 28.1 17.2L25.4 14.5C25.2 15 25 15.7 25 16.3C25 18.7 26.9 20.6 29.3 20.6C31.7 20.6 33.6 18.7 33.6 16.3C33.6 13.9 31.7 12 29.3 12C28.6 12 27.9 12.2 27.4 12.5L29.7 14.9ZM28.9 6.9C24.6 6.9 19.9 9.9 19.9 16.3C19.9 22.8 24.6 25.7 28.9 25.7H41.7V6.9H28.9ZM38.9 22.9C38.9 22.9 31.3 22.9 28.9 22.9C25.7 22.9 22.7 20.9 22.7 16.3C22.7 11.7 25.8 9.7 28.9 9.7C31.1 9.7 38.9 9.7 38.9 9.7V22.9Z" fill="#3E60C1"/>
</svg>
