<svg width="42" height="42" viewBox="0 0 42 42" fill="none" xmlns="http://www.w3.org/2000/svg">
<path d="M41.8 23.8V18L37.7 16.4C37.6 15.9 37.4 15.5 37.2 15L34.6 15.9C34.8 16.5 35 17.1 35.1 17.7L35.3 18.4L39 19.9V21.9L35.3 23.4L35.1 24.1C34.7 25.7 34.1 27.3 33.2 28.7L32.8 29.3L34.4 33L33 34.4L29.3 32.8L28.7 33.2C27.3 34.1 25.7 34.7 24.1 35.1L23.4 35.3L21.9 39H19.9L18.4 35.3L17.7 35.1C16.1 34.7 14.5 34.1 13.1 33.2L12.5 32.8L8.8 34.4L7.4 33L9 29.3L8.6 28.7C7.7 27.3 7.1 25.7 6.7 24.1L6.5 23.4L2.8 21.9V19.9L6.5 18.4L6.7 17.7C7.1 16.1 7.7 14.5 8.6 13.1L9 12.5L7.4 8.8L8.8 7.4L12.5 9L13.1 8.6C14.5 7.7 16.1 7.1 17.7 6.7L18.4 6.5L19.9 2.8H21.9L23.4 6.5L24.1 6.7C25.7 7.1 27.3 7.7 28.7 8.6L29.3 9L33 7.4L34.4 8.8L33.5 10.9L36.1 12L37.7 8.2L33.6 4.1L29.5 5.8C28.2 5.1 26.8 4.5 25.4 4.1L23.8 0H18L16.4 4.1C15 4.5 13.6 5.1 12.3 5.8L8.2 4.1L4.1 8.2L5.8 12.3C5.1 13.6 4.5 15 4.1 16.4L0 18V23.8L4.1 25.4C4.5 26.8 5.1 28.2 5.8 29.5L4.1 33.6L8.2 37.7L12.3 36C13.6 36.7 15 37.3 16.4 37.7L18 41.8H23.8L25.4 37.7C26.8 37.3 28.2 36.7 29.5 36L33.6 37.7L37.7 33.6L36 29.6C36.7 28.3 37.3 26.9 37.7 25.5L41.8 23.8ZM16.9 16.9L14.9 18.9V19.9H16.9V25.9H18.9V15.9H16.9V16.9ZM23.9 15.9H21.9C20.8 15.9 19.9 16.8 19.9 17.9V23.9C19.9 25 20.8 25.9 21.9 25.9H23.9C25 25.9 25.9 25 25.9 23.9V17.9C25.9 16.8 25 15.9 23.9 15.9ZM23.9 23.9H21.9V17.9H23.9V23.9ZM20.9 9C14.3 9 9 14.3 9 20.9C9 27.5 14.3 32.8 20.9 32.8C27.5 32.8 32.8 27.5 32.8 20.9C32.8 14.3 27.5 9 20.9 9ZM20.9 30C15.9 30 11.8 25.9 11.8 20.9C11.8 15.9 15.9 11.8 20.9 11.8C25.9 11.8 30 15.9 30 20.9C30 25.9 25.9 30 20.9 30Z" fill="#3E60C1"/>
</svg>
