<svg width="39" height="40" viewBox="0 0 39 40" fill="none" xmlns="http://www.w3.org/2000/svg">
<path d="M33 20.4C33 29.3 20.8 35.6 18 36.9C15.2 35.6 2.8 29.3 2.8 20.4V9.7C6.9 9.5 10.4 6.7 11.5 2.8H24.7C25.6 5.6 27.6 7.7 30.2 8.8L32.5 6.5C29.8 6 27.7 3.9 27.2 1.2L26.9 0H9.1L8.9 1.2C8.5 4.5 5.7 6.9 2.4 6.9C2.2 6.9 2.1 6.9 1.9 6.9C1.8 6.9 1.7 6.9 1.6 6.9L0 6.7V20.4C0 32.2 16.7 39.4 17.5 39.7L18 39.9L18.5 39.7C19.2 39.4 35.8 32.2 35.8 20.4V14.9L33 17.7V20.4ZM10 16.8L8 18.8L18 28.8L38.5 8.3L36.5 6.3L18 24.8L10 16.8Z" fill="#3E60C1"/>
</svg>
